<?xml version="1.0" encoding="utf-8"?>
<!-- Generator: Adobe Illustrator 16.0.0, SVG Export Plug-In . SVG Version: 6.00 Build 0)  -->
<!DOCTYPE svg PUBLIC "-//W3C//DTD SVG 1.1//EN" "http://www.w3.org/Graphics/SVG/1.1/DTD/svg11.dtd">
<svg version="1.1" id="Capa_1" xmlns="http://www.w3.org/2000/svg" xmlns:xlink="http://www.w3.org/1999/xlink" x="0px" y="0px"
	 width="8.54px" height="20.813px" viewBox="74.148 0 8.54 20.813" enable-background="new 74.148 0 8.54 20.813"
	 xml:space="preserve">
<g>
	<g>
		<defs>
			<polyline id="SVGID_1_" points="804.223,-635.775 -127.063,-635.775 -127.063,834.375 804.223,834.375 			"/>
		</defs>
		<clipPath id="SVGID_2_">
			<use xlink:href="#SVGID_1_"  overflow="visible"/>
		</clipPath>
	</g>
	<g>
		<defs>
			<polyline id="SVGID_3_" points="804.223,-635.775 -127.063,-635.775 -127.063,834.375 804.223,834.375 			"/>
		</defs>
		<clipPath id="SVGID_4_">
			<use xlink:href="#SVGID_3_"  overflow="visible"/>
		</clipPath>
	</g>
	<g>
		<defs>
			<polyline id="SVGID_5_" points="804.223,-635.775 -127.063,-635.775 -127.063,834.375 804.223,834.375 			"/>
		</defs>
		<clipPath id="SVGID_6_">
			<use xlink:href="#SVGID_5_"  overflow="visible"/>
		</clipPath>
	</g>
	<g>
		<defs>
			<polyline id="SVGID_7_" points="804.223,-635.775 -127.063,-635.775 -127.063,834.375 804.223,834.375 			"/>
		</defs>
		<clipPath id="SVGID_8_">
			<use xlink:href="#SVGID_7_"  overflow="visible"/>
		</clipPath>
	</g>
	<g>
		<defs>
			<polyline id="SVGID_9_" points="804.223,-635.775 -127.063,-635.775 -127.063,834.375 804.223,834.375 			"/>
		</defs>
		<clipPath id="SVGID_10_">
			<use xlink:href="#SVGID_9_"  overflow="visible"/>
		</clipPath>
	</g>
	<g>
		<defs>
			<polyline id="SVGID_11_" points="804.223,-635.775 -127.063,-635.775 -127.063,834.375 804.223,834.375 			"/>
		</defs>
		<clipPath id="SVGID_12_">
			<use xlink:href="#SVGID_11_"  overflow="visible"/>
		</clipPath>
	</g>
	<g>
		<defs>
			<polyline id="SVGID_13_" points="804.223,-635.775 -127.063,-635.775 -127.063,834.375 804.223,834.375 			"/>
		</defs>
		<clipPath id="SVGID_14_">
			<use xlink:href="#SVGID_13_"  overflow="visible"/>
		</clipPath>
	</g>
	<g>
		<defs>
			<polyline id="SVGID_15_" points="804.223,-635.775 -127.063,-635.775 -127.063,834.375 804.223,834.375 			"/>
		</defs>
		<clipPath id="SVGID_16_">
			<use xlink:href="#SVGID_15_"  overflow="visible"/>
		</clipPath>
	</g>
	<g>
		<defs>
			<polyline id="SVGID_17_" points="804.223,-635.775 -127.063,-635.775 -127.063,834.375 804.223,834.375 			"/>
		</defs>
		<clipPath id="SVGID_18_">
			<use xlink:href="#SVGID_17_"  overflow="visible"/>
		</clipPath>
	</g>
	<g>
		<defs>
			<polyline id="SVGID_19_" points="804.223,-635.775 -127.063,-635.775 -127.063,834.375 804.223,834.375 			"/>
		</defs>
		<clipPath id="SVGID_20_">
			<use xlink:href="#SVGID_19_"  overflow="visible"/>
		</clipPath>
	</g>
	<g>
		<defs>
			<polyline id="SVGID_21_" points="804.223,-635.775 -127.063,-635.775 -127.063,834.375 804.223,834.375 			"/>
		</defs>
		<clipPath id="SVGID_22_">
			<use xlink:href="#SVGID_21_"  overflow="visible"/>
		</clipPath>
	</g>
	<g>
		<defs>
			<polyline id="SVGID_23_" points="804.223,-635.775 -127.063,-635.775 -127.063,834.375 804.223,834.375 			"/>
		</defs>
		<clipPath id="SVGID_24_">
			<use xlink:href="#SVGID_23_"  overflow="visible"/>
		</clipPath>
	</g>
	<g>
		<defs>
			<polyline id="SVGID_25_" points="804.223,-635.775 -127.063,-635.775 -127.063,834.375 804.223,834.375 			"/>
		</defs>
		<clipPath id="SVGID_26_">
			<use xlink:href="#SVGID_25_"  overflow="visible"/>
		</clipPath>
	</g>
	<g>
		<defs>
			<polyline id="SVGID_27_" points="804.223,-635.775 -127.063,-635.775 -127.063,834.375 804.223,834.375 			"/>
		</defs>
		<clipPath id="SVGID_28_">
			<use xlink:href="#SVGID_27_"  overflow="visible"/>
		</clipPath>
	</g>
	<g>
		<defs>
			<polyline id="SVGID_29_" points="804.223,-635.775 -127.063,-635.775 -127.063,834.375 804.223,834.375 			"/>
		</defs>
		<clipPath id="SVGID_30_">
			<use xlink:href="#SVGID_29_"  overflow="visible"/>
		</clipPath>
	</g>
	<g>
		<defs>
			<polyline id="SVGID_31_" points="804.223,-635.775 -127.063,-635.775 -127.063,834.375 804.223,834.375 			"/>
		</defs>
		<clipPath id="SVGID_32_">
			<use xlink:href="#SVGID_31_"  overflow="visible"/>
		</clipPath>
	</g>
	<g>
		<defs>
			<polyline id="SVGID_33_" points="804.223,-635.775 -127.063,-635.775 -127.063,834.375 804.223,834.375 			"/>
		</defs>
		<clipPath id="SVGID_34_">
			<use xlink:href="#SVGID_33_"  overflow="visible"/>
		</clipPath>
	</g>
	<g>
		<defs>
			<polyline id="SVGID_35_" points="804.223,-635.775 -127.063,-635.775 -127.063,834.375 804.223,834.375 			"/>
		</defs>
		<clipPath id="SVGID_36_">
			<use xlink:href="#SVGID_35_"  overflow="visible"/>
		</clipPath>
	</g>
	<g>
		<defs>
			<polyline id="SVGID_37_" points="804.223,-635.775 -127.063,-635.775 -127.063,834.375 804.223,834.375 			"/>
		</defs>
		<clipPath id="SVGID_38_">
			<use xlink:href="#SVGID_37_"  overflow="visible"/>
		</clipPath>
	</g>
	<g>
		<defs>
			<polyline id="SVGID_39_" points="804.223,-635.775 -127.063,-635.775 -127.063,834.375 804.223,834.375 			"/>
		</defs>
		<clipPath id="SVGID_40_">
			<use xlink:href="#SVGID_39_"  overflow="visible"/>
		</clipPath>
	</g>
	<g>
		<defs>
			<polyline id="SVGID_41_" points="804.223,-635.775 -127.063,-635.775 -127.063,834.375 804.223,834.375 			"/>
		</defs>
		<clipPath id="SVGID_42_">
			<use xlink:href="#SVGID_41_"  overflow="visible"/>
		</clipPath>
	</g>
	<g>
		<defs>
			<polyline id="SVGID_43_" points="804.223,-635.775 -127.063,-635.775 -127.063,834.375 804.223,834.375 			"/>
		</defs>
		<clipPath id="SVGID_44_">
			<use xlink:href="#SVGID_43_"  overflow="visible"/>
		</clipPath>
	</g>
	<g>
		<defs>
			<polyline id="SVGID_45_" points="804.223,-635.775 -127.063,-635.775 -127.063,834.375 804.223,834.375 			"/>
		</defs>
		<clipPath id="SVGID_46_">
			<use xlink:href="#SVGID_45_"  overflow="visible"/>
		</clipPath>
	</g>
	<g>
		<defs>
			<polyline id="SVGID_47_" points="804.223,-635.775 -127.063,-635.775 -127.063,834.375 804.223,834.375 			"/>
		</defs>
		<clipPath id="SVGID_48_">
			<use xlink:href="#SVGID_47_"  overflow="visible"/>
		</clipPath>
	</g>
	<g>
		<defs>
			<polyline id="SVGID_49_" points="804.223,-635.775 -127.063,-635.775 -127.063,834.375 804.223,834.375 			"/>
		</defs>
		<clipPath id="SVGID_50_">
			<use xlink:href="#SVGID_49_"  overflow="visible"/>
		</clipPath>
	</g>
	<g>
		<defs>
			<polyline id="SVGID_51_" points="804.223,-635.775 -127.063,-635.775 -127.063,834.375 804.223,834.375 			"/>
		</defs>
		<clipPath id="SVGID_52_">
			<use xlink:href="#SVGID_51_"  overflow="visible"/>
		</clipPath>
	</g>
	<g>
		<defs>
			<polyline id="SVGID_53_" points="804.223,-635.775 -127.063,-635.775 -127.063,834.375 804.223,834.375 			"/>
		</defs>
		<clipPath id="SVGID_54_">
			<use xlink:href="#SVGID_53_"  overflow="visible"/>
		</clipPath>
	</g>
	<g>
		<defs>
			<polyline id="SVGID_55_" points="804.223,-635.775 -127.063,-635.775 -127.063,834.375 804.223,834.375 			"/>
		</defs>
		<clipPath id="SVGID_56_">
			<use xlink:href="#SVGID_55_"  overflow="visible"/>
		</clipPath>
	</g>
	<g>
		<defs>
			<polyline id="SVGID_57_" points="804.223,-635.775 -127.063,-635.775 -127.063,834.375 804.223,834.375 			"/>
		</defs>
		<clipPath id="SVGID_58_">
			<use xlink:href="#SVGID_57_"  overflow="visible"/>
		</clipPath>
	</g>
	<g>
		<defs>
			<polyline id="SVGID_59_" points="804.223,-635.775 -127.063,-635.775 -127.063,834.375 804.223,834.375 			"/>
		</defs>
		<clipPath id="SVGID_60_">
			<use xlink:href="#SVGID_59_"  overflow="visible"/>
		</clipPath>
	</g>
	<g>
		<defs>
			<polyline id="SVGID_61_" points="804.223,-635.775 -127.063,-635.775 -127.063,834.375 804.223,834.375 			"/>
		</defs>
		<clipPath id="SVGID_62_">
			<use xlink:href="#SVGID_61_"  overflow="visible"/>
		</clipPath>
	</g>
	<g>
		<defs>
			<polyline id="SVGID_63_" points="804.223,-635.775 -127.063,-635.775 -127.063,834.375 804.223,834.375 			"/>
		</defs>
		<clipPath id="SVGID_64_">
			<use xlink:href="#SVGID_63_"  overflow="visible"/>
		</clipPath>
	</g>
	<g>
		<defs>
			<polyline id="SVGID_65_" points="804.223,-635.775 -127.063,-635.775 -127.063,834.375 804.223,834.375 			"/>
		</defs>
		<clipPath id="SVGID_66_">
			<use xlink:href="#SVGID_65_"  overflow="visible"/>
		</clipPath>
	</g>
	<g>
		<defs>
			<polyline id="SVGID_67_" points="804.223,-635.775 -127.063,-635.775 -127.063,834.375 804.223,834.375 			"/>
		</defs>
		<clipPath id="SVGID_68_">
			<use xlink:href="#SVGID_67_"  overflow="visible"/>
		</clipPath>
	</g>
	<g>
		<defs>
			<polyline id="SVGID_69_" points="804.223,-635.775 -127.063,-635.775 -127.063,834.375 804.223,834.375 			"/>
		</defs>
		<clipPath id="SVGID_70_">
			<use xlink:href="#SVGID_69_"  overflow="visible"/>
		</clipPath>
	</g>
	<g>
		<defs>
			<polyline id="SVGID_71_" points="804.223,-635.775 -127.063,-635.775 -127.063,834.375 804.223,834.375 			"/>
		</defs>
		<clipPath id="SVGID_72_">
			<use xlink:href="#SVGID_71_"  overflow="visible"/>
		</clipPath>
	</g>
	<g>
		<defs>
			<polyline id="SVGID_73_" points="804.223,-635.775 -127.063,-635.775 -127.063,834.375 804.223,834.375 			"/>
		</defs>
		<clipPath id="SVGID_74_">
			<use xlink:href="#SVGID_73_"  overflow="visible"/>
		</clipPath>
	</g>
	<g>
		<defs>
			<polyline id="SVGID_75_" points="804.223,-635.775 -127.063,-635.775 -127.063,834.375 804.223,834.375 			"/>
		</defs>
		<clipPath id="SVGID_76_">
			<use xlink:href="#SVGID_75_"  overflow="visible"/>
		</clipPath>
		<g clip-path="url(#SVGID_76_)">
			<g>
				<defs>
					<polyline id="SVGID_77_" points="804.223,834.375 -127.063,834.375 -127.063,-635.773 804.223,-635.773 					"/>
				</defs>
				<defs>
					<polyline id="SVGID_78_" points="804.223,834.375 -127.063,834.375 -127.063,-635.773 804.223,-635.773 					"/>
				</defs>
				<defs>
					<polyline id="SVGID_79_" points="804.223,834.375 -127.063,834.375 -127.063,-635.773 804.223,-635.773 					"/>
				</defs>
				<defs>
					<polyline id="SVGID_80_" points="804.223,834.375 -127.063,834.375 -127.063,-635.773 804.223,-635.773 					"/>
				</defs>
				<defs>
					<polyline id="SVGID_81_" points="804.223,834.375 -127.063,834.375 -127.063,-635.773 804.223,-635.773 					"/>
				</defs>
				<defs>
					<polyline id="SVGID_82_" points="804.223,834.375 -127.063,834.375 -127.063,-635.773 804.223,-635.773 					"/>
				</defs>
				<defs>
					<polyline id="SVGID_83_" points="804.223,834.375 -127.063,834.375 -127.063,-635.773 804.223,-635.773 					"/>
				</defs>
				<clipPath id="SVGID_84_">
					<use xlink:href="#SVGID_77_"  overflow="visible"/>
				</clipPath>
				<clipPath id="SVGID_85_" clip-path="url(#SVGID_84_)">
					<use xlink:href="#SVGID_78_"  overflow="visible"/>
				</clipPath>
				<clipPath id="SVGID_86_" clip-path="url(#SVGID_85_)">
					<use xlink:href="#SVGID_79_"  overflow="visible"/>
				</clipPath>
				<clipPath id="SVGID_87_" clip-path="url(#SVGID_86_)">
					<use xlink:href="#SVGID_80_"  overflow="visible"/>
				</clipPath>
				<clipPath id="SVGID_88_" clip-path="url(#SVGID_87_)">
					<use xlink:href="#SVGID_81_"  overflow="visible"/>
				</clipPath>
				<clipPath id="SVGID_89_" clip-path="url(#SVGID_88_)">
					<use xlink:href="#SVGID_82_"  overflow="visible"/>
				</clipPath>
				<clipPath id="SVGID_90_" clip-path="url(#SVGID_89_)">
					<use xlink:href="#SVGID_83_"  overflow="visible"/>
				</clipPath>
				<path clip-path="url(#SVGID_90_)" fill="#AF5A24" d="M42.632,34.35c0,1.105-0.896,2-2,2h-38c-1.105,0-2-0.895-2-2v-26
					c0-1.104,0.895-2,2-2h38c1.104,0,2,0.896,2,2V34.35z"/>
			</g>
			<g>
				<defs>
					<polyline id="SVGID_91_" points="804.223,-635.775 -127.063,-635.775 -127.063,834.375 804.223,834.375 					"/>
				</defs>
				<clipPath id="SVGID_92_">
					<use xlink:href="#SVGID_91_"  overflow="visible"/>
				</clipPath>
				<g clip-path="url(#SVGID_92_)">
					<g>
						<defs>
							<polyline id="SVGID_93_" points="804.223,834.375 -127.063,834.375 -127.063,-635.773 804.223,-635.773 							"/>
						</defs>
						<defs>
							<polyline id="SVGID_94_" points="804.223,834.375 -127.063,834.375 -127.063,-635.773 804.223,-635.773 							"/>
						</defs>
						<defs>
							<polyline id="SVGID_95_" points="804.223,834.375 -127.063,834.375 -127.063,-635.773 804.223,-635.773 							"/>
						</defs>
						<defs>
							<polyline id="SVGID_96_" points="804.223,834.375 -127.063,834.375 -127.063,-635.773 804.223,-635.773 							"/>
						</defs>
						<defs>
							<polyline id="SVGID_97_" points="804.223,834.375 -127.063,834.375 -127.063,-635.773 804.223,-635.773 							"/>
						</defs>
						<defs>
							<polyline id="SVGID_98_" points="804.223,834.375 -127.063,834.375 -127.063,-635.773 804.223,-635.773 							"/>
						</defs>
						<defs>
							<polyline id="SVGID_99_" points="804.223,834.375 -127.063,834.375 -127.063,-635.773 804.223,-635.773 							"/>
						</defs>
						<defs>
							<polyline id="SVGID_100_" points="804.223,834.375 -127.063,834.375 -127.063,-635.773 804.223,-635.773 							"/>
						</defs>
						<defs>
							<polyline id="SVGID_101_" points="804.223,834.375 -127.063,834.375 -127.063,-635.773 804.223,-635.773 							"/>
						</defs>
						<defs>
							<polyline id="SVGID_102_" points="804.223,834.375 -127.063,834.375 -127.063,-635.773 804.223,-635.773 							"/>
						</defs>
						<defs>
							<polyline id="SVGID_103_" points="804.223,834.375 -127.063,834.375 -127.063,-635.773 804.223,-635.773 							"/>
						</defs>
						<defs>
							<polyline id="SVGID_104_" points="804.223,834.375 -127.063,834.375 -127.063,-635.773 804.223,-635.773 							"/>
						</defs>
						<defs>
							<polyline id="SVGID_105_" points="804.223,834.375 -127.063,834.375 -127.063,-635.773 804.223,-635.773 							"/>
						</defs>
						<defs>
							<polyline id="SVGID_106_" points="804.223,834.375 -127.063,834.375 -127.063,-635.773 804.223,-635.773 							"/>
						</defs>
						<defs>
							<polyline id="SVGID_107_" points="804.223,834.375 -127.063,834.375 -127.063,-635.773 804.223,-635.773 							"/>
						</defs>
						<defs>
							<polyline id="SVGID_108_" points="804.223,834.375 -127.063,834.375 -127.063,-635.773 804.223,-635.773 							"/>
						</defs>
						<defs>
							<polyline id="SVGID_109_" points="804.223,834.375 -127.063,834.375 -127.063,-635.773 804.223,-635.773 							"/>
						</defs>
						<defs>
							<polyline id="SVGID_110_" points="804.223,834.375 -127.063,834.375 -127.063,-635.773 804.223,-635.773 							"/>
						</defs>
						<defs>
							<polyline id="SVGID_111_" points="804.223,834.375 -127.063,834.375 -127.063,-635.773 804.223,-635.773 							"/>
						</defs>
						<defs>
							<polyline id="SVGID_112_" points="804.223,834.375 -127.063,834.375 -127.063,-635.773 804.223,-635.773 							"/>
						</defs>
						<defs>
							<polyline id="SVGID_113_" points="804.223,834.375 -127.063,834.375 -127.063,-635.773 804.223,-635.773 							"/>
						</defs>
						<defs>
							<polyline id="SVGID_114_" points="804.223,834.375 -127.063,834.375 -127.063,-635.773 804.223,-635.773 							"/>
						</defs>
						<defs>
							<polyline id="SVGID_115_" points="804.223,834.375 -127.063,834.375 -127.063,-635.773 804.223,-635.773 							"/>
						</defs>
						<defs>
							<polyline id="SVGID_116_" points="804.223,834.375 -127.063,834.375 -127.063,-635.773 804.223,-635.773 							"/>
						</defs>
						<defs>
							<polyline id="SVGID_117_" points="804.223,834.375 -127.063,834.375 -127.063,-635.773 804.223,-635.773 							"/>
						</defs>
						<defs>
							<polyline id="SVGID_118_" points="804.223,834.375 -127.063,834.375 -127.063,-635.773 804.223,-635.773 							"/>
						</defs>
						<defs>
							<polyline id="SVGID_119_" points="804.223,834.375 -127.063,834.375 -127.063,-635.773 804.223,-635.773 							"/>
						</defs>
						<defs>
							<polyline id="SVGID_120_" points="804.223,834.375 -127.063,834.375 -127.063,-635.773 804.223,-635.773 							"/>
						</defs>
						<defs>
							<polyline id="SVGID_121_" points="804.223,834.375 -127.063,834.375 -127.063,-635.773 804.223,-635.773 							"/>
						</defs>
						<defs>
							<polyline id="SVGID_122_" points="804.223,834.375 -127.063,834.375 -127.063,-635.773 804.223,-635.773 							"/>
						</defs>
						<defs>
							<polyline id="SVGID_123_" points="804.223,834.375 -127.063,834.375 -127.063,-635.773 804.223,-635.773 							"/>
						</defs>
						<defs>
							<polyline id="SVGID_124_" points="804.223,834.375 -127.063,834.375 -127.063,-635.773 804.223,-635.773 							"/>
						</defs>
						<defs>
							<polyline id="SVGID_125_" points="804.223,834.375 -127.063,834.375 -127.063,-635.773 804.223,-635.773 							"/>
						</defs>
						<defs>
							<polyline id="SVGID_126_" points="804.223,834.375 -127.063,834.375 -127.063,-635.773 804.223,-635.773 							"/>
						</defs>
						<defs>
							<polyline id="SVGID_127_" points="804.223,834.375 -127.063,834.375 -127.063,-635.773 804.223,-635.773 							"/>
						</defs>
						<defs>
							<polyline id="SVGID_128_" points="804.223,834.375 -127.063,834.375 -127.063,-635.773 804.223,-635.773 							"/>
						</defs>
						<defs>
							<polyline id="SVGID_129_" points="804.223,834.375 -127.063,834.375 -127.063,-635.773 804.223,-635.773 							"/>
						</defs>
						<defs>
							<polyline id="SVGID_130_" points="804.223,834.375 -127.063,834.375 -127.063,-635.773 804.223,-635.773 							"/>
						</defs>
						<defs>
							<polyline id="SVGID_131_" points="804.223,834.375 -127.063,834.375 -127.063,-635.773 804.223,-635.773 							"/>
						</defs>
						<defs>
							<polyline id="SVGID_132_" points="804.223,834.375 -127.063,834.375 -127.063,-635.773 804.223,-635.773 							"/>
						</defs>
						<defs>
							<polyline id="SVGID_133_" points="804.223,834.375 -127.063,834.375 -127.063,-635.773 804.223,-635.773 							"/>
						</defs>
						<defs>
							<polyline id="SVGID_134_" points="804.223,834.375 -127.063,834.375 -127.063,-635.773 804.223,-635.773 							"/>
						</defs>
						<clipPath id="SVGID_135_">
							<use xlink:href="#SVGID_93_"  overflow="visible"/>
						</clipPath>
						<clipPath id="SVGID_136_" clip-path="url(#SVGID_135_)">
							<use xlink:href="#SVGID_94_"  overflow="visible"/>
						</clipPath>
						<clipPath id="SVGID_137_" clip-path="url(#SVGID_136_)">
							<use xlink:href="#SVGID_95_"  overflow="visible"/>
						</clipPath>
						<clipPath id="SVGID_138_" clip-path="url(#SVGID_137_)">
							<use xlink:href="#SVGID_96_"  overflow="visible"/>
						</clipPath>
						<clipPath id="SVGID_139_" clip-path="url(#SVGID_138_)">
							<use xlink:href="#SVGID_97_"  overflow="visible"/>
						</clipPath>
						<clipPath id="SVGID_140_" clip-path="url(#SVGID_139_)">
							<use xlink:href="#SVGID_98_"  overflow="visible"/>
						</clipPath>
						<clipPath id="SVGID_141_" clip-path="url(#SVGID_140_)">
							<use xlink:href="#SVGID_99_"  overflow="visible"/>
						</clipPath>
						<clipPath id="SVGID_142_" clip-path="url(#SVGID_141_)">
							<use xlink:href="#SVGID_100_"  overflow="visible"/>
						</clipPath>
						<clipPath id="SVGID_143_" clip-path="url(#SVGID_142_)">
							<use xlink:href="#SVGID_101_"  overflow="visible"/>
						</clipPath>
						<clipPath id="SVGID_144_" clip-path="url(#SVGID_143_)">
							<use xlink:href="#SVGID_102_"  overflow="visible"/>
						</clipPath>
						<clipPath id="SVGID_145_" clip-path="url(#SVGID_144_)">
							<use xlink:href="#SVGID_103_"  overflow="visible"/>
						</clipPath>
						<clipPath id="SVGID_146_" clip-path="url(#SVGID_145_)">
							<use xlink:href="#SVGID_104_"  overflow="visible"/>
						</clipPath>
						<clipPath id="SVGID_147_" clip-path="url(#SVGID_146_)">
							<use xlink:href="#SVGID_105_"  overflow="visible"/>
						</clipPath>
						<clipPath id="SVGID_148_" clip-path="url(#SVGID_147_)">
							<use xlink:href="#SVGID_106_"  overflow="visible"/>
						</clipPath>
						<clipPath id="SVGID_149_" clip-path="url(#SVGID_148_)">
							<use xlink:href="#SVGID_107_"  overflow="visible"/>
						</clipPath>
						<clipPath id="SVGID_150_" clip-path="url(#SVGID_149_)">
							<use xlink:href="#SVGID_108_"  overflow="visible"/>
						</clipPath>
						<clipPath id="SVGID_151_" clip-path="url(#SVGID_150_)">
							<use xlink:href="#SVGID_109_"  overflow="visible"/>
						</clipPath>
						<clipPath id="SVGID_152_" clip-path="url(#SVGID_151_)">
							<use xlink:href="#SVGID_110_"  overflow="visible"/>
						</clipPath>
						<clipPath id="SVGID_153_" clip-path="url(#SVGID_152_)">
							<use xlink:href="#SVGID_111_"  overflow="visible"/>
						</clipPath>
						<clipPath id="SVGID_154_" clip-path="url(#SVGID_153_)">
							<use xlink:href="#SVGID_112_"  overflow="visible"/>
						</clipPath>
						<clipPath id="SVGID_155_" clip-path="url(#SVGID_154_)">
							<use xlink:href="#SVGID_113_"  overflow="visible"/>
						</clipPath>
						<clipPath id="SVGID_156_" clip-path="url(#SVGID_155_)">
							<use xlink:href="#SVGID_114_"  overflow="visible"/>
						</clipPath>
						<clipPath id="SVGID_157_" clip-path="url(#SVGID_156_)">
							<use xlink:href="#SVGID_115_"  overflow="visible"/>
						</clipPath>
						<clipPath id="SVGID_158_" clip-path="url(#SVGID_157_)">
							<use xlink:href="#SVGID_116_"  overflow="visible"/>
						</clipPath>
						<clipPath id="SVGID_159_" clip-path="url(#SVGID_158_)">
							<use xlink:href="#SVGID_117_"  overflow="visible"/>
						</clipPath>
						<clipPath id="SVGID_160_" clip-path="url(#SVGID_159_)">
							<use xlink:href="#SVGID_118_"  overflow="visible"/>
						</clipPath>
						<clipPath id="SVGID_161_" clip-path="url(#SVGID_160_)">
							<use xlink:href="#SVGID_119_"  overflow="visible"/>
						</clipPath>
						<clipPath id="SVGID_162_" clip-path="url(#SVGID_161_)">
							<use xlink:href="#SVGID_120_"  overflow="visible"/>
						</clipPath>
						<clipPath id="SVGID_163_" clip-path="url(#SVGID_162_)">
							<use xlink:href="#SVGID_121_"  overflow="visible"/>
						</clipPath>
						<clipPath id="SVGID_164_" clip-path="url(#SVGID_163_)">
							<use xlink:href="#SVGID_122_"  overflow="visible"/>
						</clipPath>
						<clipPath id="SVGID_165_" clip-path="url(#SVGID_164_)">
							<use xlink:href="#SVGID_123_"  overflow="visible"/>
						</clipPath>
						<clipPath id="SVGID_166_" clip-path="url(#SVGID_165_)">
							<use xlink:href="#SVGID_124_"  overflow="visible"/>
						</clipPath>
						<clipPath id="SVGID_167_" clip-path="url(#SVGID_166_)">
							<use xlink:href="#SVGID_125_"  overflow="visible"/>
						</clipPath>
						<clipPath id="SVGID_168_" clip-path="url(#SVGID_167_)">
							<use xlink:href="#SVGID_126_"  overflow="visible"/>
						</clipPath>
						<clipPath id="SVGID_169_" clip-path="url(#SVGID_168_)">
							<use xlink:href="#SVGID_127_"  overflow="visible"/>
						</clipPath>
						<clipPath id="SVGID_170_" clip-path="url(#SVGID_169_)">
							<use xlink:href="#SVGID_128_"  overflow="visible"/>
						</clipPath>
						<clipPath id="SVGID_171_" clip-path="url(#SVGID_170_)">
							<use xlink:href="#SVGID_129_"  overflow="visible"/>
						</clipPath>
						<clipPath id="SVGID_172_" clip-path="url(#SVGID_171_)">
							<use xlink:href="#SVGID_130_"  overflow="visible"/>
						</clipPath>
						<clipPath id="SVGID_173_" clip-path="url(#SVGID_172_)">
							<use xlink:href="#SVGID_131_"  overflow="visible"/>
						</clipPath>
						<clipPath id="SVGID_174_" clip-path="url(#SVGID_173_)">
							<use xlink:href="#SVGID_132_"  overflow="visible"/>
						</clipPath>
						<clipPath id="SVGID_175_" clip-path="url(#SVGID_174_)">
							<use xlink:href="#SVGID_133_"  overflow="visible"/>
						</clipPath>
						<clipPath id="SVGID_176_" clip-path="url(#SVGID_175_)">
							<use xlink:href="#SVGID_134_"  overflow="visible"/>
						</clipPath>
						<path clip-path="url(#SVGID_176_)" fill="#797979" d="M74.876,6.971H82.1c0.285,0,0.517-0.232,0.517-0.517
							c0-0.285-0.231-0.517-0.517-0.517h-7.224c-0.287,0-0.517,0.231-0.517,0.517C74.36,6.739,74.589,6.971,74.876,6.971"/>
						<path clip-path="url(#SVGID_176_)" fill="none" stroke="#FFFFFF" stroke-width="0.25" stroke-miterlimit="10" d="
							M74.876,6.971H82.1c0.285,0,0.517-0.232,0.517-0.517c0-0.285-0.231-0.517-0.517-0.517h-7.224
							c-0.287,0-0.517,0.231-0.517,0.517C74.36,6.739,74.589,6.971,74.876,6.971z"/>
						<path clip-path="url(#SVGID_176_)" fill="#797979" d="M74.876,9.064H82.1c0.285,0,0.517-0.231,0.517-0.517
							S82.385,8.031,82.1,8.031h-7.224c-0.287,0-0.517,0.231-0.517,0.517S74.589,9.064,74.876,9.064"/>
						<path clip-path="url(#SVGID_176_)" fill="none" stroke="#FFFFFF" stroke-width="0.25" stroke-miterlimit="10" d="
							M74.876,9.064H82.1c0.285,0,0.517-0.231,0.517-0.517S82.385,8.031,82.1,8.031h-7.224c-0.287,0-0.517,0.231-0.517,0.517
							S74.589,9.064,74.876,9.064z"/>
						<path clip-path="url(#SVGID_176_)" fill="#797979" d="M100.876,9.594h7.224c0.285,0,0.517-0.232,0.517-0.517
							c0-0.285-0.231-0.517-0.517-0.517h-7.224c-0.287,0-0.517,0.231-0.517,0.517C100.36,9.362,100.589,9.594,100.876,9.594"/>
						<path clip-path="url(#SVGID_176_)" fill="none" stroke="#FFFFFF" stroke-width="0.25" stroke-miterlimit="10" d="
							M100.876,9.594h7.224c0.285,0,0.517-0.232,0.517-0.517c0-0.285-0.231-0.517-0.517-0.517h-7.224
							c-0.287,0-0.517,0.231-0.517,0.517C100.36,9.362,100.589,9.594,100.876,9.594z"/>
						<path clip-path="url(#SVGID_176_)" fill="#797979" d="M100.876,11.687h7.224c0.285,0,0.517-0.231,0.517-0.517
							s-0.231-0.517-0.517-0.517h-7.224c-0.287,0-0.517,0.231-0.517,0.517S100.589,11.687,100.876,11.687"/>
						<path clip-path="url(#SVGID_176_)" fill="none" stroke="#FFFFFF" stroke-width="0.25" stroke-miterlimit="10" d="
							M100.876,11.687h7.224c0.285,0,0.517-0.231,0.517-0.517s-0.231-0.517-0.517-0.517h-7.224c-0.287,0-0.517,0.231-0.517,0.517
							S100.589,11.687,100.876,11.687z"/>
						<path clip-path="url(#SVGID_176_)" fill="#797979" d="M74.876,12.646H82.1c0.285,0,0.517-0.231,0.517-0.517
							s-0.231-0.517-0.517-0.517h-7.224c-0.287,0-0.517,0.231-0.517,0.517C74.36,12.415,74.589,12.646,74.876,12.646"/>
						<path clip-path="url(#SVGID_176_)" fill="none" stroke="#FFFFFF" stroke-width="0.25" stroke-miterlimit="10" d="
							M74.876,12.646H82.1c0.285,0,0.517-0.231,0.517-0.517s-0.231-0.517-0.517-0.517h-7.224c-0.287,0-0.517,0.231-0.517,0.517
							C74.36,12.415,74.589,12.646,74.876,12.646z"/>
						<path clip-path="url(#SVGID_176_)" fill="#797979" d="M74.876,14.739H82.1c0.285,0,0.517-0.231,0.517-0.517
							s-0.231-0.516-0.517-0.516h-7.224c-0.287,0-0.517,0.23-0.517,0.516S74.589,14.739,74.876,14.739"/>
						<path clip-path="url(#SVGID_176_)" fill="none" stroke="#FFFFFF" stroke-width="0.25" stroke-miterlimit="10" d="
							M74.876,14.739H82.1c0.285,0,0.517-0.231,0.517-0.517s-0.231-0.516-0.517-0.516h-7.224c-0.287,0-0.517,0.23-0.517,0.516
							S74.589,14.739,74.876,14.739z"/>
						<path clip-path="url(#SVGID_176_)" fill="#797979" d="M133.625,7.637h-1.014V7.298c0-0.188-0.15-0.338-0.337-0.338h-3.379
							c-0.187,0-0.337,0.15-0.337,0.338v0.338h-1.014c-0.187,0-0.338,0.151-0.338,0.338v1.013c0,0.746,0.604,1.352,1.352,1.352h0.52
							c0.305,0.341,0.717,0.568,1.17,0.645v0.707h-0.338c-0.561,0-1.015,0.453-1.015,1.014v0.676c0,0.186,0.151,0.337,0.338,0.337
							h2.703c0.187,0,0.338-0.151,0.338-0.337v-0.676c0-0.561-0.454-1.014-1.015-1.014h-0.338v-0.707
							c0.453-0.076,0.865-0.304,1.17-0.645h0.52c0.747,0,1.352-0.605,1.352-1.352V7.975C133.962,7.788,133.812,7.637,133.625,7.637
							 M128.559,9.664c-0.374,0-0.677-0.304-0.677-0.677V8.312h0.677v0.676c0,0.23,0.04,0.459,0.118,0.677H128.559z M131.26,12.365
							c0.187,0,0.338,0.151,0.338,0.339v0.338h-2.027v-0.338c0-0.188,0.151-0.339,0.339-0.339H131.26z M131.937,8.987
							c0,0.746-0.605,1.352-1.352,1.352s-1.352-0.605-1.352-1.352v-1.35h2.703V8.987z M133.289,8.987
							c0,0.373-0.303,0.677-0.677,0.677h-0.118c0.078-0.218,0.118-0.446,0.118-0.677V8.312h0.677V8.987z"/>
						<path clip-path="url(#SVGID_176_)" fill="none" stroke="#FFFFFF" stroke-width="0.05" stroke-miterlimit="10" d="
							M133.625,7.637h-1.014V7.298c0-0.188-0.15-0.338-0.337-0.338h-3.379c-0.187,0-0.337,0.15-0.337,0.338v0.338h-1.014
							c-0.187,0-0.338,0.151-0.338,0.338v1.013c0,0.746,0.604,1.352,1.352,1.352h0.52c0.305,0.341,0.717,0.568,1.17,0.645v0.707
							h-0.338c-0.561,0-1.015,0.453-1.015,1.014v0.676c0,0.186,0.151,0.337,0.338,0.337h2.703c0.187,0,0.338-0.151,0.338-0.337
							v-0.676c0-0.561-0.454-1.014-1.015-1.014h-0.338v-0.707c0.453-0.076,0.865-0.304,1.17-0.645h0.52
							c0.747,0,1.352-0.605,1.352-1.352V7.975C133.962,7.788,133.812,7.637,133.625,7.637z M128.559,9.664
							c-0.374,0-0.677-0.304-0.677-0.677V8.312h0.677v0.676c0,0.23,0.04,0.459,0.118,0.677H128.559z M131.26,12.365
							c0.187,0,0.338,0.151,0.338,0.339v0.338h-2.027v-0.338c0-0.188,0.151-0.339,0.339-0.339H131.26z M131.937,8.987
							c0,0.746-0.605,1.352-1.352,1.352s-1.352-0.605-1.352-1.352v-1.35h2.703V8.987z M133.289,8.987
							c0,0.373-0.303,0.677-0.677,0.677h-0.118c0.078-0.218,0.118-0.446,0.118-0.677V8.312h0.677V8.987z"/>
					</g>
					<g>
						<defs>
							<polyline id="SVGID_177_" points="804.223,-635.775 -127.063,-635.775 -127.063,834.375 804.223,834.375 							"/>
						</defs>
						<clipPath id="SVGID_178_">
							<use xlink:href="#SVGID_177_"  overflow="visible"/>
						</clipPath>
					</g>
					<g>
						<defs>
							<polyline id="SVGID_179_" points="804.223,-635.775 -127.063,-635.775 -127.063,834.375 804.223,834.375 							"/>
						</defs>
						<clipPath id="SVGID_180_">
							<use xlink:href="#SVGID_179_"  overflow="visible"/>
						</clipPath>
					</g>
					<g>
						<defs>
							<polyline id="SVGID_181_" points="804.223,-635.775 -127.063,-635.775 -127.063,834.375 804.223,834.375 							"/>
						</defs>
						<clipPath id="SVGID_182_">
							<use xlink:href="#SVGID_181_"  overflow="visible"/>
						</clipPath>
					</g>
					<g>
						<defs>
							<polyline id="SVGID_183_" points="804.223,-635.775 -127.063,-635.775 -127.063,834.375 804.223,834.375 							"/>
						</defs>
						<clipPath id="SVGID_184_">
							<use xlink:href="#SVGID_183_"  overflow="visible"/>
						</clipPath>
					</g>
					<g>
						<defs>
							<polyline id="SVGID_185_" points="804.223,-635.775 -127.063,-635.775 -127.063,834.375 804.223,834.375 							"/>
						</defs>
						<clipPath id="SVGID_186_">
							<use xlink:href="#SVGID_185_"  overflow="visible"/>
						</clipPath>
					</g>
					<g>
						<defs>
							<polyline id="SVGID_187_" points="804.223,-635.775 -127.063,-635.775 -127.063,834.375 804.223,834.375 							"/>
						</defs>
						<clipPath id="SVGID_188_">
							<use xlink:href="#SVGID_187_"  overflow="visible"/>
						</clipPath>
					</g>
					<g>
						<defs>
							<polyline id="SVGID_189_" points="804.223,-635.775 -127.063,-635.775 -127.063,834.375 804.223,834.375 							"/>
						</defs>
						<clipPath id="SVGID_190_">
							<use xlink:href="#SVGID_189_"  overflow="visible"/>
						</clipPath>
					</g>
					<g>
						<defs>
							<polyline id="SVGID_191_" points="804.223,-635.775 -127.063,-635.775 -127.063,834.375 804.223,834.375 							"/>
						</defs>
						<clipPath id="SVGID_192_">
							<use xlink:href="#SVGID_191_"  overflow="visible"/>
						</clipPath>
					</g>
					<g>
						<defs>
							<polyline id="SVGID_193_" points="804.223,-635.775 -127.063,-635.775 -127.063,834.375 804.223,834.375 							"/>
						</defs>
						<clipPath id="SVGID_194_">
							<use xlink:href="#SVGID_193_"  overflow="visible"/>
						</clipPath>
					</g>
					<g>
						<defs>
							<polyline id="SVGID_195_" points="804.223,-635.775 -127.063,-635.775 -127.063,834.375 804.223,834.375 							"/>
						</defs>
						<clipPath id="SVGID_196_">
							<use xlink:href="#SVGID_195_"  overflow="visible"/>
						</clipPath>
					</g>
					<g>
						<defs>
							<polyline id="SVGID_197_" points="804.223,-635.775 -127.063,-635.775 -127.063,834.375 804.223,834.375 							"/>
						</defs>
						<clipPath id="SVGID_198_">
							<use xlink:href="#SVGID_197_"  overflow="visible"/>
						</clipPath>
					</g>
					<g>
						<defs>
							<polyline id="SVGID_199_" points="804.223,-635.775 -127.063,-635.775 -127.063,834.375 804.223,834.375 							"/>
						</defs>
						<clipPath id="SVGID_200_">
							<use xlink:href="#SVGID_199_"  overflow="visible"/>
						</clipPath>
					</g>
					<g>
						<defs>
							<polyline id="SVGID_201_" points="804.223,-635.775 -127.063,-635.775 -127.063,834.375 804.223,834.375 							"/>
						</defs>
						<clipPath id="SVGID_202_">
							<use xlink:href="#SVGID_201_"  overflow="visible"/>
						</clipPath>
					</g>
					<g>
						<defs>
							<polyline id="SVGID_203_" points="804.223,-635.775 -127.063,-635.775 -127.063,834.375 804.223,834.375 							"/>
						</defs>
						<clipPath id="SVGID_204_">
							<use xlink:href="#SVGID_203_"  overflow="visible"/>
						</clipPath>
					</g>
					<g>
						<defs>
							<polyline id="SVGID_205_" points="804.223,-635.775 -127.063,-635.775 -127.063,834.375 804.223,834.375 							"/>
						</defs>
						<clipPath id="SVGID_206_">
							<use xlink:href="#SVGID_205_"  overflow="visible"/>
						</clipPath>
					</g>
					<g>
						<defs>
							<polyline id="SVGID_207_" points="804.223,-635.775 -127.063,-635.775 -127.063,834.375 804.223,834.375 							"/>
						</defs>
						<clipPath id="SVGID_208_">
							<use xlink:href="#SVGID_207_"  overflow="visible"/>
						</clipPath>
					</g>
					<g>
						<defs>
							<polyline id="SVGID_209_" points="804.223,-635.775 -127.063,-635.775 -127.063,834.375 804.223,834.375 							"/>
						</defs>
						<clipPath id="SVGID_210_">
							<use xlink:href="#SVGID_209_"  overflow="visible"/>
						</clipPath>
					</g>
					<g>
						<defs>
							<polyline id="SVGID_211_" points="804.223,-635.775 -127.063,-635.775 -127.063,834.375 804.223,834.375 							"/>
						</defs>
						<clipPath id="SVGID_212_">
							<use xlink:href="#SVGID_211_"  overflow="visible"/>
						</clipPath>
					</g>
					<g>
						<defs>
							<polyline id="SVGID_213_" points="804.223,-635.775 -127.063,-635.775 -127.063,834.375 804.223,834.375 							"/>
						</defs>
						<clipPath id="SVGID_214_">
							<use xlink:href="#SVGID_213_"  overflow="visible"/>
						</clipPath>
					</g>
					<g>
						<defs>
							<polyline id="SVGID_215_" points="804.223,-635.775 -127.063,-635.775 -127.063,834.375 804.223,834.375 							"/>
						</defs>
						<clipPath id="SVGID_216_">
							<use xlink:href="#SVGID_215_"  overflow="visible"/>
						</clipPath>
					</g>
					<g>
						<defs>
							<polyline id="SVGID_217_" points="804.223,-635.775 -127.063,-635.775 -127.063,834.375 804.223,834.375 							"/>
						</defs>
						<clipPath id="SVGID_218_">
							<use xlink:href="#SVGID_217_"  overflow="visible"/>
						</clipPath>
					</g>
					<g>
						<defs>
							<polyline id="SVGID_219_" points="804.223,-635.775 -127.063,-635.775 -127.063,834.375 804.223,834.375 							"/>
						</defs>
						<clipPath id="SVGID_220_">
							<use xlink:href="#SVGID_219_"  overflow="visible"/>
						</clipPath>
					</g>
					<g>
						<defs>
							<polyline id="SVGID_221_" points="804.223,-635.775 -127.063,-635.775 -127.063,834.375 804.223,834.375 							"/>
						</defs>
						<clipPath id="SVGID_222_">
							<use xlink:href="#SVGID_221_"  overflow="visible"/>
						</clipPath>
					</g>
					<g>
						<defs>
							<polyline id="SVGID_223_" points="804.223,-635.775 -127.063,-635.775 -127.063,834.375 804.223,834.375 							"/>
						</defs>
						<clipPath id="SVGID_224_">
							<use xlink:href="#SVGID_223_"  overflow="visible"/>
						</clipPath>
					</g>
					<g>
						<defs>
							<polyline id="SVGID_225_" points="804.223,-635.775 -127.063,-635.775 -127.063,834.375 804.223,834.375 							"/>
						</defs>
						<clipPath id="SVGID_226_">
							<use xlink:href="#SVGID_225_"  overflow="visible"/>
						</clipPath>
					</g>
					<g>
						<defs>
							<polyline id="SVGID_227_" points="804.223,-635.775 -127.063,-635.775 -127.063,834.375 804.223,834.375 							"/>
						</defs>
						<clipPath id="SVGID_228_">
							<use xlink:href="#SVGID_227_"  overflow="visible"/>
						</clipPath>
					</g>
					<g>
						<defs>
							<polyline id="SVGID_229_" points="804.223,-635.775 -127.063,-635.775 -127.063,834.375 804.223,834.375 							"/>
						</defs>
						<clipPath id="SVGID_230_">
							<use xlink:href="#SVGID_229_"  overflow="visible"/>
						</clipPath>
					</g>
					<g>
						<defs>
							<polyline id="SVGID_231_" points="804.223,-635.775 -127.063,-635.775 -127.063,834.375 804.223,834.375 							"/>
						</defs>
						<clipPath id="SVGID_232_">
							<use xlink:href="#SVGID_231_"  overflow="visible"/>
						</clipPath>
					</g>
					<g>
						<defs>
							<polyline id="SVGID_233_" points="804.223,-635.775 -127.063,-635.775 -127.063,834.375 804.223,834.375 							"/>
						</defs>
						<clipPath id="SVGID_234_">
							<use xlink:href="#SVGID_233_"  overflow="visible"/>
						</clipPath>
					</g>
				</g>
			</g>
		</g>
	</g>
</g>
</svg>
